<?xml version="1.0" encoding="UTF-8" standalone="no"?>
<svg width="128" height="128" viewBox="0 0 128 128" xmlns="http://www.w3.org/2000/svg">
    <!-- خلفية دائرية متدرجة -->
    <defs>
        <linearGradient id="backgroundGradient" x1="0%" y1="0%" x2="100%" y2="100%">
            <stop offset="0%" style="stop-color:#4A90E2;stop-opacity:1" />
            <stop offset="100%" style="stop-color:#357ABD;stop-opacity:1" />
        </linearGradient>
        <linearGradient id="calendarGradient" x1="0%" y1="0%" x2="100%" y2="100%">
            <stop offset="0%" style="stop-color:#FFFFFF;stop-opacity:1" />
            <stop offset="100%" style="stop-color:#F8F9FA;stop-opacity:1" />
        </linearGradient>
        <linearGradient id="toolGradient" x1="0%" y1="0%" x2="100%" y2="100%">
            <stop offset="0%" style="stop-color:#28A745;stop-opacity:1" />
            <stop offset="100%" style="stop-color:#20834F;stop-opacity:1" />
        </linearGradient>
        <linearGradient id="clockGradient" x1="0%" y1="0%" x2="100%" y2="100%">
            <stop offset="0%" style="stop-color:#FF6B35;stop-opacity:1" />
            <stop offset="100%" style="stop-color:#E55A2B;stop-opacity:1" />
        </linearGradient>
        <!-- ظلال -->
        <filter id="shadow">
            <feDropShadow dx="2" dy="2" stdDeviation="3" flood-opacity="0.3"/>
        </filter>
    </defs>
    
    <!-- الخلفية الدائرية -->
    <circle cx="64" cy="64" r="58" fill="url(#backgroundGradient)" filter="url(#shadow)"/>
    
    <!-- التقويم الأساسي -->
    <rect x="25" y="20" width="45" height="50" rx="4" fill="url(#calendarGradient)" stroke="#DDD" stroke-width="1"/>
    
    <!-- شريط التقويم العلوي -->
    <rect x="25" y="20" width="45" height="12" rx="4" fill="#4A90E2"/>
    
    <!-- حلقات التقويم -->
    <circle cx="33" cy="18" r="2" fill="#666"/>
    <circle cx="62" cy="18" r="2" fill="#666"/>
    
    <!-- خطوط التقويم -->
    <line x1="30" y1="40" x2="65" y2="40" stroke="#E0E0E0" stroke-width="1"/>
    <line x1="30" y1="47" x2="65" y2="47" stroke="#E0E0E0" stroke-width="1"/>
    <line x1="30" y1="54" x2="65" y2="54" stroke="#E0E0E0" stroke-width="1"/>
    <line x1="30" y1="61" x2="65" y2="61" stroke="#E0E0E0" stroke-width="1"/>
    
    <!-- نقاط المواعيد -->
    <circle cx="35" cy="43" r="2" fill="#4A90E2"/>
    <circle cx="50" cy="50" r="2" fill="#28A745"/>
    <circle cx="40" cy="57" r="2" fill="#FF6B35"/>
    
    <!-- أدوات الخدمة الميدانية -->
    <g transform="translate(75, 25)">
        <!-- مفك براغي -->
        <rect x="0" y="10" width="2" height="20" fill="url(#toolGradient)"/>
        <rect x="-2" y="8" width="6" height="4" rx="1" fill="url(#toolGradient)"/>
        
        <!-- مطرقة -->
        <rect x="8" y="15" width="2" height="15" fill="#8B4513"/>
        <rect x="6" y="10" width="6" height="5" rx="1" fill="#666"/>
    </g>
    
    <!-- رمز الساعة (للمواعيد) -->
    <circle cx="95" cy="85" r="12" fill="url(#clockGradient)" filter="url(#shadow)"/>
    <circle cx="95" cy="85" r="10" fill="white" stroke="#DDD" stroke-width="1"/>
    
    <!-- عقارب الساعة -->
    <line x1="95" y1="85" x2="95" y2="78" stroke="#333" stroke-width="2" stroke-linecap="round"/>
    <line x1="95" y1="85" x2="100" y2="85" stroke="#333" stroke-width="1.5" stroke-linecap="round"/>
    <circle cx="95" cy="85" r="1.5" fill="#333"/>
    
    <!-- رمز المختبر -->
    <g transform="translate(20, 85)">
        <!-- أنبوب اختبار -->
        <rect x="5" y="8" width="4" height="15" rx="2" fill="#E3F2FD" stroke="#2196F3" stroke-width="1"/>
        <rect x="5" y="15" width="4" height="5" fill="#2196F3" opacity="0.7"/>
        
        <!-- حامل الأنبوب -->
        <rect x="2" y="23" width="10" height="2" fill="#666"/>
        <rect x="0" y="25" width="14" height="3" rx="1" fill="#888"/>
    </g>
    
    <!-- خطوط اتصال -->
    <path d="M 47 45 Q 60 55 75 40" stroke="#4A90E2" stroke-width="2" fill="none" opacity="0.6" stroke-dasharray="3,2"/>
    <path d="M 70 50 Q 80 65 88 75" stroke="#28A745" stroke-width="2" fill="none" opacity="0.6" stroke-dasharray="3,2"/>
    
    <!-- نقاط الاتصال -->
    <circle cx="47" cy="45" r="3" fill="#4A90E2" opacity="0.8"/>
    <circle cx="75" cy="40" r="3" fill="#4A90E2" opacity="0.8"/>
    <circle cx="88" cy="75" r="3" fill="#28A745" opacity="0.8"/>
    
    <!-- تأثير إضاءة على الخلفية -->
    <ellipse cx="50" cy="40" rx="25" ry="15" fill="url(#backgroundGradient)" opacity="0.2"/>
</svg> 